<?xml version="1.0" standalone="no"?>
<!DOCTYPE svg PUBLIC "-//W3C//DTD SVG 20010904//EN"
 "http://www.w3.org/TR/2001/REC-SVG-20010904/DTD/svg10.dtd">
<svg version="1.0" xmlns="http://www.w3.org/2000/svg"
 width="1361.000000pt" height="293.000000pt" viewBox="0 0 1361.000000 293.000000"
 preserveAspectRatio="xMidYMid meet">

<g transform="translate(0.000000,293.000000) scale(0.100000,-0.100000)"
fill="#000000" stroke="none">
<path d="M9402 2568 c-17 -17 -18 -2244 -1 -2281 6 -14 22 -30 36 -36 17 -8
537 -11 1863 -11 l1840 0 22 22 c22 22 22 23 3 26 -11 2 -24 8 -30 13 -5 5
-751 9 -1807 9 -1785 0 -1798 0 -1818 20 -20 20 -20 33 -20 1099 l0 1078 -23
34 c-25 37 -46 46 -65 27z"/>
<path d="M302 2558 c-9 -9 -12 -281 -12 -1160 l0 -1149 23 -23 24 -24 954 -7
c1320 -9 2656 -4 2689 12 14 6 19 12 13 12 -23 2 -14 21 10 21 20 0 19 2 -8
19 -17 10 -43 33 -58 51 l-27 32 2 428 3 428 -50 -30 c-27 -16 -60 -34 -73
-40 -14 -7 -21 -17 -17 -26 4 -11 2 -12 -7 -4 -10 8 -24 3 -56 -19 -23 -15
-42 -26 -42 -24 0 8 -64 -27 -72 -39 -4 -6 -8 -8 -8 -4 0 4 -59 -22 -130 -57
-72 -36 -132 -65 -135 -65 -2 0 -41 -17 -87 -38 -46 -21 -98 -44 -115 -51 -18
-8 -33 -18 -33 -23 0 -5 -4 -7 -9 -4 -14 9 -42 -5 -34 -17 4 -6 1 -7 -6 -2
-15 9 -132 -35 -125 -47 3 -4 -1 -5 -8 -3 -8 3 -72 -17 -143 -43 -264 -100
-708 -232 -1025 -307 -338 -79 -340 -79 -850 -83 l-465 -3 -17 22 c-17 20 -18
87 -18 1106 0 1056 0 1085 -20 1122 -10 21 -16 41 -13 45 4 3 -5 6 -18 6 -14
0 -30 -5 -37 -12z m2148 -2022 c0 -3 -4 -8 -10 -11 -5 -3 -10 -1 -10 4 0 6 5
11 10 11 6 0 10 -2 10 -4z"/>
<path d="M4934 2536 c-19 -14 -19 -37 -19 -1113 0 -604 3 -1110 8 -1125 17
-62 -104 -58 1822 -56 1660 3 1757 4 1769 20 7 10 21 18 30 18 23 0 21 53 -4
75 -20 18 -20 31 -21 1064 0 575 -4 1055 -8 1066 -5 11 -5 30 0 43 l9 22
-1783 0 c-1524 0 -1786 -2 -1803 -14z m2691 -160 c363 -78 649 -349 747 -707
20 -72 23 -107 23 -249 0 -195 -16 -263 -95 -425 -266 -544 -980 -716 -1460
-352 -30 23 -58 45 -63 48 -5 4 12 28 37 55 25 26 46 51 46 56 0 4 -45 8 -100
8 l-99 0 -31 45 -31 45 163 0 c90 0 168 4 174 8 6 4 23 28 38 55 l28 47 -231
0 -230 0 -14 28 c-8 15 -18 37 -21 50 l-7 22 270 0 270 0 12 39 12 40 31 -24
c33 -25 109 -47 141 -40 11 2 32 6 48 10 46 9 30 25 -27 25 -63 0 -101 12
-135 43 -80 74 -83 271 -4 375 30 40 18 42 -23 3 -18 -17 -36 -48 -44 -75 -8
-29 -19 -48 -31 -51 -33 -11 -47 -45 -68 -164 -12 -63 -21 -116 -21 -118 0 -2
-25 -3 -56 -3 -41 0 -55 3 -51 13 2 6 17 96 33 200 l29 187 47 0 c43 0 48 -2
48 -22 l0 -21 23 21 c12 11 34 23 48 27 21 5 25 11 21 31 l-4 24 -299 0 c-216
0 -299 3 -299 11 0 7 5 29 12 50 l11 39 275 0 c215 0 273 3 269 13 -3 6 -13
31 -22 55 l-17 42 -229 0 -229 0 25 50 25 50 176 2 177 3 -42 52 -41 52 -91 3
-91 3 53 54 c228 231 576 335 894 267z m-2163 -856 l3 -141 46 138 46 138 88
3 c79 3 86 1 81 -15 -2 -10 -21 -120 -42 -245 l-37 -228 -54 0 c-29 0 -53 2
-53 5 0 3 12 78 26 166 14 88 24 162 22 164 -2 2 -30 -73 -62 -166 l-59 -169
-39 0 -38 0 -1 93 c-1 50 -4 126 -8 167 l-6 75 -23 -145 c-34 -208 -26 -190
-83 -190 -27 0 -49 3 -49 6 0 8 69 422 76 457 6 27 6 27 85 27 l78 0 3 -140z
m998 80 c0 -25 4 -30 24 -30 23 0 24 -3 20 -37 -8 -58 -12 -63 -38 -63 -28 0
-30 -4 -46 -108 -14 -86 -10 -102 26 -102 25 0 26 -2 21 -41 -3 -22 -8 -43
-11 -46 -3 -3 -27 -8 -53 -10 -67 -7 -103 21 -103 80 0 36 45 339 56 375 2 7
22 12 54 12 49 0 50 -1 50 -30z m-493 -37 c62 -29 68 -61 44 -227 -12 -77 -21
-147 -21 -153 0 -9 -16 -13 -45 -13 -33 0 -45 4 -45 15 0 12 -6 12 -37 -5 -92
-49 -173 -3 -173 98 0 83 73 145 172 146 53 1 58 3 58 23 0 12 -5 25 -12 29
-14 9 -82 9 -129 1 l-35 -7 5 42 c5 38 10 44 41 55 51 17 136 16 177 -4z m328
7 c4 -6 4 -28 0 -50 l-7 -39 -61 -3 c-54 -3 -62 -6 -65 -24 -2 -16 7 -25 38
-39 59 -27 80 -58 80 -117 0 -103 -59 -145 -190 -136 -39 3 -73 8 -76 11 -3 3
-3 25 1 49 l7 44 54 -10 c92 -16 141 26 72 62 -18 9 -48 32 -66 50 -33 31 -34
35 -30 87 5 60 24 89 73 111 36 16 161 18 170 4z m466 -13 c44 -30 62 -68 61
-133 -1 -96 1 -94 -118 -94 -94 0 -104 -2 -104 -18 0 -36 37 -57 99 -56 31 1
67 7 80 14 24 12 24 12 16 -36 -3 -27 -10 -53 -15 -58 -5 -5 -40 -11 -78 -14
-85 -6 -151 19 -181 68 -59 99 -18 273 78 329 50 28 118 28 162 -2z"/>
<path d="M8164 1595 c-8 -42 3 -79 15 -55 5 8 11 32 14 53 8 50 -19 52 -29 2z"/>
<path d="M7275 1563 c-11 -2 -31 -12 -44 -22 l-25 -19 46 5 c26 3 61 0 79 -6
32 -11 48 -4 49 21 0 7 -69 29 -80 27 -3 -1 -14 -4 -25 -6z"/>
<path d="M7702 1343 c-18 -109 -32 -201 -32 -205 0 -15 108 -9 113 6 8 20 -2
26 -45 26 -21 0 -38 3 -38 6 0 6 42 265 55 337 3 17 0 27 -8 27 -9 0 -23 -63
-45 -197z"/>
<path d="M7406 1518 c-3 -7 -7 -27 -10 -45 l-5 -32 83 6 c57 4 85 2 90 -6 4
-6 14 -11 22 -11 17 0 19 36 2 46 -15 9 -82 9 -130 0 l-38 -7 6 31 c6 29 -12
45 -20 18z"/>
<path d="M7930 1486 c-7 -14 -22 -27 -35 -30 -12 -3 -27 -16 -33 -30 -9 -21
-8 -23 9 -19 18 5 19 2 12 -23 -4 -16 -8 -56 -7 -89 1 -98 42 -154 117 -162
29 -4 54 0 75 11 28 15 32 15 32 1 0 -22 95 -21 104 1 9 24 9 24 -34 24 -28 0
-40 4 -40 14 0 11 -8 10 -37 -5 -21 -10 -45 -19 -55 -19 -32 0 -86 28 -102 52
-40 60 -37 194 4 266 11 17 16 32 11 32 -4 0 -13 -11 -21 -24z"/>
<path d="M8059 1460 l-24 -19 31 -1 c46 0 57 -20 52 -95 -2 -36 -3 -65 -1 -65
13 0 33 70 33 114 0 45 -4 58 -22 70 -29 21 -41 20 -69 -4z"/>
<path d="M7355 1318 c-11 -19 -14 -33 -8 -35 7 -3 8 -17 2 -44 -10 -45 -2 -69
33 -93 28 -20 90 -20 128 -1 25 13 29 13 34 0 4 -10 20 -15 51 -15 38 0 45 3
45 20 0 16 -7 20 -35 20 -26 0 -33 3 -29 15 8 20 -5 19 -28 -1 -10 -10 -40
-19 -66 -22 -41 -3 -53 0 -78 21 -27 24 -29 30 -29 96 0 39 0 71 0 71 -1 0 -9
-14 -20 -32z"/>
<path d="M7514 1340 c-39 -15 -38 -30 1 -30 35 0 37 -1 31 -27 l-6 -28 20 24
c28 33 27 71 -2 70 -13 0 -33 -4 -44 -9z"/>
<path d="M5833 1340 c-31 -13 -46 -45 -33 -70 14 -26 54 -26 79 1 19 21 33 64
23 74 -8 8 -44 5 -69 -5z"/>
<path d="M6635 1465 c-37 -36 -31 -45 30 -45 52 0 55 1 55 25 0 23 -24 45 -50
45 -6 0 -22 -11 -35 -25z"/>
<path d="M8545 2521 c-3 -5 -1 -12 5 -16 5 -3 10 1 10 9 0 18 -6 21 -15 7z"/>
<path d="M1273 1969 c-30 -15 -48 -33 -62 -63 -25 -50 -26 -75 -7 -119 16 -39
44 -59 122 -88 93 -35 119 -82 71 -127 -39 -37 -129 -22 -156 25 -9 16 -13 15
-43 -14 l-32 -33 29 -31 c43 -45 83 -62 145 -63 107 -1 171 54 178 154 7 90
-11 113 -124 166 -79 36 -94 47 -94 66 0 32 11 45 44 58 24 9 36 7 70 -10 l41
-20 23 26 c13 14 21 31 19 38 -1 6 -23 21 -47 34 -56 28 -122 29 -177 1z"/>
<path d="M1715 1966 c-101 -47 -157 -133 -157 -241 0 -152 114 -268 265 -267
34 0 79 7 100 15 36 16 37 17 37 71 0 31 -2 56 -5 56 -2 0 -21 -12 -42 -26
-32 -22 -46 -25 -94 -22 -95 7 -158 76 -159 174 0 133 158 221 260 145 16 -11
32 -21 35 -21 3 0 5 25 5 56 0 53 -1 55 -35 70 -54 22 -151 18 -210 -10z"/>
<path d="M560 1725 l0 -255 114 0 c105 0 118 2 167 28 199 104 180 395 -30
467 -29 10 -81 15 -148 15 l-103 0 0 -255z m230 146 c67 -35 100 -115 80 -190
-20 -77 -67 -113 -157 -125 l-53 -7 0 171 0 170 48 0 c27 0 62 -8 82 -19z"/>
<path d="M1030 1725 l0 -255 50 0 50 0 0 255 0 255 -50 0 -50 0 0 -255z"/>
<path d="M2530 1973 c0 -5 48 -124 106 -265 142 -342 126 -340 259 -25 54 127
104 247 112 265 l14 33 -57 -3 -56 -3 -66 -162 c-36 -90 -68 -163 -71 -163 -4
0 -35 74 -71 165 l-64 165 -53 0 c-29 0 -53 -3 -53 -7z"/>
<path d="M3070 1725 l0 -255 140 0 140 0 0 40 0 40 -90 0 -90 0 0 70 0 69 88
3 87 3 3 43 3 42 -90 0 -91 0 0 55 0 55 90 0 90 0 0 45 0 45 -140 0 -140 0 0
-255z"/>
<path d="M3420 1726 l0 -256 50 0 50 0 0 100 c0 55 3 100 8 100 4 0 28 -33 54
-73 85 -129 85 -129 151 -125 l58 3 -75 100 c-42 55 -76 103 -76 106 0 4 10 9
23 13 12 3 36 19 52 36 39 40 47 128 16 177 -36 58 -63 68 -193 72 l-118 3 0
-256z m208 150 c9 -9 16 -32 16 -52 0 -47 -31 -74 -85 -74 l-39 0 0 76 0 77
46 -6 c25 -2 53 -12 62 -21z"/>
<path d="M3776 1963 c-14 -14 -5 -53 15 -64 18 -9 25 -7 43 10 16 16 18 25 10
38 -10 16 -57 27 -68 16z m11 -40 c-3 -10 -5 -4 -5 12 0 17 2 24 5 18 2 -7 2
-21 0 -30z m47 0 c-13 -21 -34 -29 -34 -13 0 6 5 8 10 5 6 -4 10 6 10 21 0 22
3 25 12 16 9 -9 10 -17 2 -29z"/>
<path d="M11605 1932 c-88 -26 -161 -70 -214 -128 -53 -58 -71 -105 -71 -188
0 -106 55 -179 204 -268 104 -63 136 -94 136 -132 0 -74 -72 -111 -199 -104
-64 4 -93 11 -154 41 l-76 36 -16 -57 c-9 -31 -23 -81 -32 -110 -19 -67 -13
-75 81 -105 57 -18 93 -22 186 -21 244 2 406 78 477 223 23 46 28 69 28 131
-1 130 -45 190 -205 279 -127 71 -159 127 -106 188 22 26 30 28 93 27 48 -1
95 -10 158 -31 50 -17 92 -29 94 -27 5 4 42 217 38 219 -1 1 -24 10 -52 20
-76 26 -291 30 -370 7z"/>
<path d="M10424 1603 c-120 -284 -140 -323 -146 -297 -30 129 -44 170 -76 224
-46 78 -106 140 -184 190 -34 22 -62 39 -64 38 -1 -2 32 -194 75 -428 l76
-425 85 -3 c111 -4 158 14 206 76 39 51 35 43 285 575 l177 377 -147 0 -148 0
-139 -327z"/>
<path d="M10960 1926 c0 -2 -49 -229 -110 -505 -60 -276 -110 -506 -110 -512
0 -6 49 -9 132 -7 l131 3 93 425 c52 234 102 464 113 513 l19 87 -134 0 c-74
0 -134 -2 -134 -4z"/>
<path d="M12445 1915 c-50 -25 -94 -85 -152 -205 -114 -236 -373 -793 -373
-801 0 -5 64 -9 143 -9 l144 0 37 95 38 96 152 -3 151 -3 14 -92 13 -93 134 0
c114 0 134 2 134 15 0 13 -135 865 -155 983 l-6 32 -122 0 c-89 0 -130 -4
-152 -15z m82 -452 c12 -81 19 -151 17 -155 -6 -9 -158 -11 -166 -3 -6 7 113
305 122 305 3 0 15 -66 27 -147z"/>
<path d="M2531 1724 c0 -11 3 -14 6 -6 3 7 2 16 -1 19 -3 4 -6 -2 -5 -13z"/>
<path d="M1460 1243 c0 -56 4 -93 10 -93 6 0 10 27 10 62 l0 62 63 -62 c34
-34 66 -62 70 -62 14 0 3 173 -10 178 -10 3 -13 -14 -13 -64 l0 -68 -65 69
-64 70 -1 -92z"/>
<path d="M1707 1323 c-4 -3 -7 -44 -7 -90 l0 -83 50 0 c28 0 50 5 50 10 0 6
-16 10 -35 10 -33 0 -35 2 -35 35 0 33 2 35 36 35 21 0 33 4 29 10 -3 6 -19
10 -36 10 -22 0 -29 5 -29 19 0 15 8 21 32 23 51 5 47 28 -4 28 -25 0 -48 -3
-51 -7z"/>
<path d="M1870 1315 c0 -8 9 -15 20 -15 18 0 20 -7 20 -75 0 -43 4 -75 10 -75
6 0 10 31 10 74 0 69 2 75 22 78 12 2 23 9 26 16 3 8 -12 12 -52 12 -43 0 -56
-3 -56 -15z"/>
<path d="M2040 1318 c0 -7 14 -50 32 -96 l31 -84 25 61 c14 34 29 61 33 61 3
0 17 -27 29 -60 12 -33 24 -60 25 -60 7 0 67 182 61 187 -10 11 -22 -9 -41
-67 l-18 -55 -23 50 c-13 28 -23 56 -23 63 -1 13 -21 17 -21 3 0 -5 -11 -33
-24 -62 l-23 -54 -23 63 c-21 56 -40 81 -40 50z"/>
<path d="M2379 1301 c-60 -61 -24 -151 61 -151 56 0 90 34 90 89 0 32 -6 44
-31 65 -41 35 -83 34 -120 -3z m106 -16 c30 -30 31 -54 4 -89 -28 -35 -70 -35
-98 0 -12 15 -21 35 -21 46 0 25 44 68 70 68 12 0 32 -11 45 -25z"/>
<path d="M2610 1240 c0 -73 3 -90 15 -90 10 0 15 10 15 32 l0 32 29 -34 c35
-42 52 -34 21 10 -20 29 -21 32 -6 49 26 28 21 70 -10 81 -60 23 -64 19 -64
-80z m65 35 c0 -11 -8 -21 -17 -23 -14 -3 -18 3 -18 23 0 20 4 26 18 23 9 -2
17 -12 17 -23z"/>
<path d="M2797 1323 c-4 -3 -7 -44 -7 -90 0 -67 3 -83 15 -83 11 0 15 11 15
38 l1 37 34 -37 c20 -21 43 -38 52 -38 12 0 4 13 -27 45 l-44 45 44 45 c53 54
32 61 -22 8 l-38 -37 0 37 c0 35 -8 45 -23 30z"/>
</g>
</svg>
