<?xml version="1.0" standalone="no"?>
<!DOCTYPE svg PUBLIC "-//W3C//DTD SVG 20010904//EN"
 "http://www.w3.org/TR/2001/REC-SVG-20010904/DTD/svg10.dtd">
<svg version="1.0" xmlns="http://www.w3.org/2000/svg"
 width="208.000000pt" height="207.000000pt" viewBox="0 0 208.000000 207.000000"
 preserveAspectRatio="xMidYMid meet">

<g transform="translate(0.000000,207.000000) scale(0.100000,-0.100000)"
fill="#000000" stroke="none">
<path d="M765 1570 c-166 -19 -238 -78 -265 -216 -18 -93 -8 -613 13 -677 56
-172 138 -197 597 -181 264 10 277 11 331 36 57 26 98 69 119 123 34 89 31
660 -4 754 -34 93 -88 137 -194 160 -58 12 -495 13 -597 1z m609 -101 c59 -20
93 -60 106 -126 16 -77 8 -593 -10 -643 -18 -50 -58 -89 -104 -101 -63 -17
-602 -12 -663 6 -53 16 -85 43 -104 90 -18 43 -25 552 -9 630 15 73 63 129
129 150 62 20 594 15 655 -6z"/>
<path d="M1023 1313 c9 -2 25 -2 35 0 9 3 1 5 -18 5 -19 0 -27 -2 -17 -5z"/>
<path d="M752 1040 c0 -14 2 -19 5 -12 2 6 2 18 0 25 -3 6 -5 1 -5 -13z"/>
</g>
</svg>
