<?xml version="1.0" standalone="no"?>
<!DOCTYPE svg PUBLIC "-//W3C//DTD SVG 20010904//EN"
 "http://www.w3.org/TR/2001/REC-SVG-20010904/DTD/svg10.dtd">
<svg version="1.0" xmlns="http://www.w3.org/2000/svg"
 width="831.000000pt" height="601.000000pt" viewBox="0 0 831.000000 601.000000"
 preserveAspectRatio="xMidYMid meet">

<g transform="translate(0.000000,601.000000) scale(0.100000,-0.100000)"
fill="#000000" stroke="none">
<path d="M5287 4893 c-34 -37 -78 -84 -97 -103 -18 -19 -74 -80 -124 -135
-265 -295 -275 -304 -276 -239 0 12 -20 89 -45 170 -25 82 -51 170 -56 196 -6
26 -14 50 -18 53 -5 2 -95 -88 -202 -200 -202 -214 -234 -244 -242 -222 -3 7
-22 37 -43 65 l-39 52 -20 -26 c-43 -58 -126 -199 -146 -253 -29 -74 -32 -203
-6 -279 10 -28 22 -50 27 -47 5 3 14 22 21 43 6 20 20 61 31 90 19 51 20 52
59 52 22 0 54 6 72 14 44 18 135 117 196 212 88 138 222 288 240 269 5 -6 18
-77 30 -159 24 -166 39 -209 110 -305 76 -103 91 -140 107 -269 8 -65 22 -142
30 -173 18 -72 18 -74 -3 -58 -34 29 -75 107 -105 204 -16 55 -45 132 -64 170
-18 39 -51 135 -73 215 -59 217 -52 206 -90 132 -38 -75 -101 -259 -101 -295
0 -21 -7 -26 -47 -36 -58 -15 -155 -67 -230 -123 l-55 -42 43 -20 c167 -75
443 -213 512 -255 190 -116 320 -246 352 -354 8 -28 13 -52 11 -55 -3 -2 -29
34 -59 80 -170 261 -540 454 -947 493 -82 8 -222 -9 -308 -38 -57 -18 -63 -22
-42 -28 14 -4 59 -7 100 -8 41 -1 102 -6 135 -12 33 -6 75 -12 92 -14 99 -10
195 -70 232 -144 10 -20 33 -88 50 -151 55 -198 119 -300 264 -417 94 -75 126
-93 233 -128 44 -15 88 -31 99 -35 47 -21 160 -33 305 -31 184 2 331 28 480
85 84 33 98 41 122 79 l27 42 -71 12 c-141 23 -252 103 -305 219 -45 100 -56
194 -46 424 14 351 10 576 -11 645 -14 47 -61 145 -70 145 -1 0 -2 -42 -2 -92
-1 -51 -9 -122 -18 -157 -19 -73 -65 -181 -77 -181 -14 0 -49 43 -56 69 -11
46 6 216 32 310 14 52 24 99 22 104 -1 5 -26 -16 -55 -48 -92 -101 -153 -263
-168 -452 -13 -155 -39 -105 -39 74 l0 112 53 101 c28 55 52 106 52 112 0 6
-22 -10 -49 -35 -46 -43 -94 -67 -108 -53 -3 3 25 41 63 83 90 102 335 353
345 353 4 0 10 -19 14 -42 16 -93 56 -211 90 -260 44 -63 57 -108 95 -328 46
-264 72 -347 131 -422 18 -21 24 -52 35 -155 20 -189 47 -253 152 -357 l60
-58 27 58 c146 314 210 668 185 1013 -5 80 -18 184 -28 230 -16 80 -19 85 -47
93 -37 10 -312 38 -378 38 l-48 0 26 -42 c47 -77 134 -256 176 -360 75 -190
119 -435 119 -672 0 -116 -16 -281 -30 -306 -8 -14 -9 -11 -39 105 -25 101
-55 301 -60 413 l-6 124 -27 -21 c-14 -12 -29 -21 -32 -21 -3 0 -6 22 -6 49 0
74 -35 260 -76 406 -76 274 -85 313 -92 410 l-7 100 -22 -37 c-26 -44 -38 -48
-47 -13 -3 13 -31 80 -61 148 -30 68 -55 131 -55 140 0 36 -24 25 -83 -40z"/>
<path d="M4317 4151 c-86 -87 -157 -162 -157 -166 0 -12 72 5 119 30 26 13 60
38 78 57 31 32 131 224 121 233 -2 3 -75 -67 -161 -154z"/>
<path d="M2827 4136 c-151 -55 -247 -222 -288 -501 -19 -126 -16 -501 4 -612
30 -162 58 -235 122 -313 32 -39 61 -72 64 -75 4 -2 -3 26 -15 63 -44 132 -54
419 -23 642 26 183 117 387 268 599 56 80 100 149 98 154 -4 13 -90 42 -147
50 -28 4 -59 1 -83 -7z"/>
<path d="M3350 4082 c-48 -23 -168 -139 -234 -226 -153 -199 -241 -425 -267
-680 -24 -240 38 -530 150 -701 64 -98 201 -239 216 -223 2 2 -18 37 -46 78
-114 169 -160 293 -181 483 -9 83 -9 129 0 198 45 334 303 679 601 804 42 18
77 39 79 46 1 9 -15 23 -42 36 -24 12 -61 43 -82 70 -66 81 -120 133 -140 133
-11 0 -35 -8 -54 -18z"/>
<path d="M2353 3935 c-40 -7 -89 -23 -109 -36 l-37 -22 6 -88 c15 -203 101
-504 197 -687 28 -53 30 -54 25 -22 -44 305 -28 572 51 848 6 20 3 22 -27 21
-19 0 -66 -7 -106 -14z"/>
<path d="M5481 3685 c-51 -290 -51 -390 -1 -488 52 -101 167 -180 281 -193 52
-6 109 6 109 24 0 4 -26 13 -58 20 -102 21 -185 104 -218 218 -8 29 -19 119
-23 201 -6 100 -16 169 -29 213 -11 36 -24 81 -29 100 -8 31 -11 22 -32 -95z"/>
<path d="M8062 1329 c-61 -31 -96 -93 -96 -174 0 -88 29 -142 118 -217 39 -33
81 -79 94 -102 67 -118 -62 -210 -163 -116 -21 19 -21 19 -45 -24 -21 -39 -22
-46 -9 -62 24 -30 91 -54 149 -54 125 0 200 76 200 201 0 96 -15 126 -115 224
-101 99 -115 119 -115 165 0 69 79 102 147 60 l33 -20 20 41 c12 22 18 44 15
49 -4 6 -24 19 -45 30 -53 27 -132 26 -188 -1z"/>
<path d="M78 965 l-75 -376 56 3 56 3 7 50 c16 102 9 95 97 95 89 0 83 6 97
-97 l7 -53 56 0 56 0 -75 375 -75 375 -66 0 -66 0 -75 -375z m176 74 c14 -85
26 -163 26 -172 0 -14 -11 -17 -63 -17 l-64 0 31 180 c16 99 33 177 37 173 3
-5 18 -78 33 -164z"/>
<path d="M530 964 l0 -376 113 4 c164 5 211 34 260 164 18 51 21 80 21 209 0
129 -3 158 -21 209 -50 131 -105 166 -266 166 l-107 0 0 -376z m219 250 c44
-37 61 -104 61 -240 0 -149 -13 -209 -56 -252 -28 -28 -39 -33 -71 -30 l-38 3
-3 273 -2 272 39 0 c28 0 49 -8 70 -26z"/>
<path d="M1000 1337 c0 -5 139 -700 145 -724 5 -21 11 -23 70 -23 59 0 65 2
70 22 6 25 145 720 145 725 0 2 -26 3 -58 3 l-58 0 -48 -295 c-27 -162 -50
-295 -51 -295 -1 0 -24 133 -51 295 l-48 295 -58 0 c-32 0 -58 -1 -58 -3z"/>
<path d="M1530 965 l0 -375 150 0 150 0 0 50 0 50 -95 0 -95 0 0 115 0 115 90
0 90 0 0 50 0 49 -87 3 -88 3 -3 108 -3 107 96 0 95 0 0 50 0 50 -150 0 -150
0 0 -375z"/>
<path d="M1960 965 l0 -375 55 0 55 0 2 243 3 242 81 -240 81 -240 56 -3 57
-3 0 376 0 375 -60 0 -60 0 -1 -227 -1 -228 -76 228 -77 227 -57 0 -58 0 0
-375z"/>
<path d="M2460 1290 l0 -50 55 0 55 0 0 -325 0 -325 60 0 60 0 0 325 0 325 55
0 55 0 0 50 0 50 -170 0 -170 0 0 -50z"/>
<path d="M2912 1028 l3 -313 27 -47 c70 -119 256 -119 326 0 l27 47 3 313 3
312 -55 0 -55 0 -3 -299 c-3 -286 -4 -301 -24 -328 -30 -40 -88 -40 -118 0
-20 27 -21 42 -24 328 l-3 299 -55 0 -55 0 3 -312z"/>
<path d="M3450 966 l0 -376 60 0 60 0 0 146 0 145 27 -3 c18 -2 29 -11 34 -28
4 -14 24 -78 44 -142 l36 -118 61 0 c44 0 59 3 56 13 -3 6 -26 76 -52 155
l-48 142 31 29 c46 43 64 94 64 182 1 95 -27 158 -86 197 -37 25 -50 27 -164
30 l-123 4 0 -376z m212 263 c11 -6 26 -26 34 -44 28 -67 10 -171 -34 -194
-12 -6 -37 -11 -56 -11 l-36 0 0 130 0 130 36 0 c19 0 44 -5 56 -11z"/>
<path d="M3970 965 l0 -375 150 0 150 0 0 50 0 50 -95 0 -95 0 0 115 0 115 90
0 90 0 0 50 0 50 -90 0 -90 0 0 110 0 110 95 0 95 0 0 50 0 50 -150 0 -150 0
0 -375z"/>
<path d="M4590 966 l0 -376 55 0 55 0 0 144 0 144 69 4 c56 3 75 9 105 31 59
46 80 97 80 197 0 100 -21 151 -81 197 -35 27 -42 28 -160 31 l-123 4 0 -376z
m201 264 c29 -16 49 -64 49 -120 0 -87 -34 -130 -104 -130 l-36 0 0 130 0 130
36 0 c19 0 44 -5 55 -10z"/>
<path d="M5080 965 l0 -375 150 0 150 0 0 50 0 50 -95 0 -95 0 0 325 0 325
-55 0 -55 0 0 -375z"/>
<path d="M5508 965 l-75 -376 56 3 56 3 7 50 c16 102 9 95 97 95 89 0 83 6 97
-97 l7 -53 57 0 58 0 -77 375 -76 375 -66 0 -66 0 -75 -375z m177 65 l30 -180
-66 0 -66 0 31 180 c17 99 33 180 36 180 3 0 19 -81 35 -180z"/>
<path d="M5960 965 l0 -375 55 0 55 0 0 242 c0 139 4 238 9 233 5 -6 43 -115
86 -242 l77 -233 54 0 54 0 0 375 0 375 -60 0 -60 0 -1 -227 -1 -228 -76 228
-77 227 -57 0 -58 0 0 -375z"/>
<path d="M6500 965 l0 -375 60 0 60 0 1 238 1 237 80 -237 80 -238 54 0 54 0
0 375 0 375 -60 0 -60 0 -2 -220 -3 -220 -75 220 -75 220 -57 0 -58 0 0 -375z"/>
<path d="M7040 965 l0 -375 150 0 150 0 0 50 0 50 -90 0 -90 0 0 115 0 114 88
3 87 3 3 48 3 47 -90 0 -91 0 0 110 0 110 90 0 90 0 0 50 0 50 -150 0 -150 0
0 -375z"/>
<path d="M7480 965 l0 -375 55 0 55 0 0 145 0 145 28 0 c28 0 29 -3 72 -145
l43 -145 58 0 c33 0 59 4 59 8 0 4 -22 75 -50 156 l-49 149 25 19 c37 30 66
95 71 163 9 106 -28 190 -102 232 -35 20 -54 23 -152 23 l-113 0 0 -375z m201
265 c29 -16 49 -64 49 -120 0 -87 -34 -130 -104 -130 l-36 0 0 130 0 130 36 0
c19 0 44 -5 55 -10z"/>
<path d="M4208 435 c-34 -19 -58 -63 -58 -105 0 -56 25 -87 101 -125 82 -42
101 -70 75 -110 -22 -33 -90 -35 -130 -4 -15 12 -28 20 -30 18 -2 -2 -9 -15
-16 -28 -11 -22 -10 -27 10 -43 79 -64 216 -36 240 50 5 22 7 53 4 71 -7 36
-58 84 -112 106 -49 21 -72 43 -72 71 0 52 59 70 116 35 l31 -19 16 28 c16 27
16 28 -11 46 -36 24 -128 29 -164 9z"/>
<path d="M2730 225 l0 -215 35 0 35 0 0 85 0 85 64 0 c53 0 67 4 90 25 48 44
59 109 30 171 -24 51 -58 64 -164 64 l-90 0 0 -215z m184 133 c9 -12 16 -34
16 -48 0 -48 -26 -70 -81 -70 l-49 0 0 70 0 70 49 0 c40 0 53 -4 65 -22z"/>
<path d="M3187 433 c-3 -4 -30 -96 -61 -203 -31 -107 -59 -201 -61 -208 -4
-10 5 -12 32 -10 33 3 37 7 47 43 l12 40 74 0 75 0 9 -42 c8 -41 10 -43 46
-43 l37 0 -49 168 c-27 92 -55 187 -62 212 -12 43 -15 45 -54 48 -22 2 -42 -1
-45 -5z m72 -160 c12 -45 24 -89 27 -97 5 -14 -3 -16 -56 -16 -46 0 -61 3 -57
13 2 6 15 54 28 104 13 51 27 89 31 85 3 -4 16 -44 27 -89z"/>
<path d="M3520 225 l0 -215 35 0 35 0 0 68 c1 37 7 78 14 91 13 24 14 22 67
-64 29 -48 59 -89 65 -92 7 -2 25 -3 42 -1 l30 3 -73 112 -73 111 64 96 c35
52 64 98 64 101 0 3 -17 5 -37 5 -37 0 -39 -2 -98 -98 l-60 -97 -3 98 -3 97
-34 0 -35 0 0 -215z"/>
<path d="M3930 225 l0 -215 35 0 35 0 0 215 0 215 -35 0 -35 0 0 -215z"/>
<path d="M4510 410 c0 -29 1 -30 50 -30 l50 0 0 -185 0 -185 35 0 35 0 0 184
0 185 48 3 c43 3 47 5 50 31 l3 27 -135 0 -136 0 0 -30z"/>
<path d="M4906 238 c-32 -112 -61 -209 -63 -215 -4 -9 6 -13 30 -13 33 0 36 3
49 43 l15 42 71 3 72 3 12 -46 c11 -42 14 -45 45 -45 18 0 33 5 33 10 0 9 -85
306 -111 388 -10 29 -14 32 -53 32 l-42 0 -58 -202z m137 20 l25 -98 -60 0
c-58 0 -60 1 -54 23 3 12 16 59 28 105 11 46 24 80 28 75 4 -4 18 -52 33 -105z"/>
<path d="M5300 225 l0 -215 30 0 30 0 0 146 c0 88 4 143 9 139 6 -3 42 -68 82
-145 71 -137 73 -140 106 -140 l33 0 0 215 0 215 -35 0 -35 0 0 -142 -1 -143
-75 143 c-75 140 -76 142 -110 142 l-34 0 0 -215z"/>
<path d="M928 173 c314 -2 830 -2 1145 0 314 1 57 2 -573 2 -630 0 -887 -1
-572 -2z"/>
<path d="M6388 173 c338 -2 887 -2 1220 0 334 1 58 2 -613 2 -671 0 -944 -1
-607 -2z"/>
</g>
</svg>
