<?xml version="1.0" standalone="no"?>
<!DOCTYPE svg PUBLIC "-//W3C//DTD SVG 20010904//EN"
 "http://www.w3.org/TR/2001/REC-SVG-20010904/DTD/svg10.dtd">
<svg version="1.0" xmlns="http://www.w3.org/2000/svg"
 width="209.000000pt" height="207.000000pt" viewBox="0 0 209.000000 207.000000"
 preserveAspectRatio="xMidYMid meet">

<g transform="translate(0.000000,207.000000) scale(0.100000,-0.100000)"
fill="#000000" stroke="none">
<path d="M920 1471 c-437 -7 -433 -6 -465 -83 -15 -36 -19 -83 -23 -293 -6
-363 6 -426 94 -470 36 -18 68 -20 444 -27 535 -10 602 0 652 95 22 40 23 53
26 325 5 438 2 445 -228 454 -63 2 -288 2 -500 -1z m142 -324 c100 -47 148
-85 148 -119 0 -14 -34 -36 -141 -88 -78 -39 -150 -70 -160 -70 -12 0 -23 10
-29 26 -13 34 -13 236 1 271 19 52 30 51 181 -20z"/>
</g>
</svg>
